<svg width="23" height="25" viewBox="0 0 23 25" fill="none" xmlns="http://www.w3.org/2000/svg">
<path d="M10.6295 14.8837C10.1375 14.8837 9.72949 14.4757 9.72949 13.9837V7.98369C9.72949 7.49169 10.1375 7.08369 10.6295 7.08369C11.1215 7.08369 11.5295 7.49169 11.5295 7.98369V13.9837C11.5295 14.4757 11.1215 14.8837 10.6295 14.8837Z" fill="#6230F4"/>
<path d="M14.0974 2.52707H7.16142C6.68142 2.52707 6.29742 2.14307 6.29742 1.66307C6.29742 1.18307 6.68142 0.787071 7.16142 0.787071H14.0974C14.5774 0.787071 14.9614 1.17107 14.9614 1.65107C14.9614 2.13107 14.5774 2.52707 14.0974 2.52707Z" fill="#6230F4"/>
<path opacity="0.4" d="M14.2292 22.3546V18.8266C14.2292 17.3026 15.1412 16.3906 16.6652 16.3906H20.1932C20.4212 16.3906 20.6252 16.4146 20.8291 16.4626C20.9611 15.7906 21.0331 15.0946 21.0331 14.3866C21.0331 8.65064 16.3652 3.98265 10.6292 3.98265C4.89315 3.98265 0.225159 8.65064 0.225159 14.3866C0.225159 20.1226 4.89315 24.7906 10.6292 24.7906C12.0812 24.7906 13.4612 24.4906 14.7212 23.9506C14.4092 23.5426 14.2292 23.0146 14.2292 22.3546Z" fill="#6230F4"/>
<path d="M20.1938 16.3885H16.6659C15.1419 16.3885 14.2299 17.3005 14.2299 18.8245V22.3525C14.2299 23.8765 15.1419 24.7885 16.6659 24.7885H20.1938C21.7178 24.7885 22.6298 23.8765 22.6298 22.3525V18.8245C22.6298 17.3005 21.7178 16.3885 20.1938 16.3885ZM19.8579 21.7405L18.4419 22.5565C18.1539 22.7245 17.8659 22.8085 17.6019 22.8085C17.3979 22.8085 17.2179 22.7605 17.0499 22.6645C16.6659 22.4365 16.4499 21.9925 16.4499 21.4045V19.7725C16.4499 19.1845 16.6659 18.7405 17.0499 18.5125C17.4339 18.2845 17.9259 18.3325 18.4419 18.6205L19.8579 19.4365C20.3619 19.7365 20.6498 20.1445 20.6498 20.5885C20.6498 21.0325 20.3739 21.4405 19.8579 21.7405Z" fill="#6230F4"/>
</svg>
