<svg width="20" height="24" viewBox="0 0 20 24" fill="none" xmlns="http://www.w3.org/2000/svg">
<path d="M7.3251 0.98475C7.66661 0.65574 8.1964 0.660247 8.53792 0.989257C9.74637 2.15657 10.8804 3.41402 11.94 4.77513C12.4216 4.12612 12.9689 3.41852 13.56 2.84163C13.9059 2.50811 14.4401 2.50811 14.7859 2.84614C16.3009 4.33344 17.5838 6.29849 18.4857 8.16438C19.3745 10.0032 19.9656 11.8826 19.9656 13.2077C19.9656 18.9586 15.596 23.8172 10.1579 23.8172C4.65863 23.8172 0.35025 18.9541 0.35025 13.2032C0.35025 11.4725 1.12961 9.35874 2.33806 7.26749C3.55964 5.1447 5.28475 2.93177 7.3251 0.98475ZM10.2324 19.4904C11.3401 19.4904 12.3209 19.175 13.2447 18.544C15.0881 17.2189 15.5828 14.5688 14.4751 12.4866C14.2781 12.081 13.7745 12.0539 13.4899 12.3964L12.3866 13.717C12.0976 14.0595 11.5766 14.0505 11.3051 13.6945C10.5827 12.748 9.29101 11.0579 8.55544 10.0979C8.27959 9.73732 7.75418 9.73282 7.47396 10.0934C5.99405 12.0088 5.24972 13.2167 5.24972 14.5733C5.2541 17.6606 7.46959 19.4904 10.2324 19.4904Z" fill="#FF9600"/>
<path d="M10.2324 19.4904C11.3401 19.4904 12.3209 19.175 13.2447 18.544C15.0881 17.2189 15.5828 14.5688 14.4751 12.4866C14.2781 12.081 13.7745 12.0539 13.4899 12.3964L12.3866 13.717C12.0976 14.0595 11.5766 14.0505 11.3051 13.6945C10.5827 12.748 9.29101 11.0579 8.55544 10.0979C8.27959 9.73732 7.75418 9.73282 7.47396 10.0934C5.99405 12.0088 5.24972 13.2167 5.24972 14.5733C5.2541 17.6606 7.46959 19.4904 10.2324 19.4904Z" fill="#FFC800"/>
</svg>
