<svg width="30" height="26" viewBox="0 0 30 26" fill="none" xmlns="http://www.w3.org/2000/svg">
<path d="M3.93656 6.33008H26.1345C26.3621 6.33008 26.5804 6.42051 26.7414 6.58147C26.9024 6.74243 26.9928 6.96075 26.9928 7.18839V23.4666C26.9928 24.1276 26.7302 24.7614 26.2629 25.2288C25.7955 25.6961 25.1616 25.9587 24.5007 25.9587H5.55849C4.89755 25.9587 4.26368 25.6961 3.79632 25.2288C3.32896 24.7614 3.06641 24.1276 3.06641 23.4666V7.18839C3.06641 6.96075 3.15684 6.74243 3.3178 6.58147C3.47877 6.42051 3.69709 6.33008 3.92473 6.33008H3.93656Z" fill="#7D50FF"/>
<path d="M18.2168 10.209H11.8633V25.9624H18.2168V10.209Z" fill="#B399FF"/>
<path d="M18.2168 10.209H11.8633V25.9624H18.2168V10.209Z" fill="#B399FF"/>
<path d="M4.59103 4.46302L4.98566 2.38137C5.0566 2.00119 5.22626 1.64633 5.47761 1.35239C5.72896 1.05845 6.05318 0.835756 6.41775 0.70664C6.78231 0.577524 7.17442 0.546523 7.55475 0.616747C7.93508 0.68697 8.29026 0.855948 8.58468 1.10674L10.1948 2.48792L14.6975 6.33353L9.10362 8.30665L3.51172 10.2798L4.59103 4.46302Z" fill="#FF9E00"/>
<path d="M4.59103 4.46302L4.98566 2.38137C5.0566 2.00119 5.22626 1.64633 5.47761 1.35239C5.72896 1.05845 6.05318 0.835756 6.41775 0.70664C6.78231 0.577524 7.17442 0.546523 7.55475 0.616747C7.93508 0.68697 8.29026 0.855948 8.58468 1.10674L10.1948 2.48792L14.6975 6.33353L9.10362 8.30665L3.51172 10.2798L4.59103 4.46302Z" fill="#7D50FF"/>
<path d="M25.8039 4.46302L25.4092 2.38137C25.3383 2.00119 25.1686 1.64633 24.9173 1.35239C24.6659 1.05845 24.3417 0.835756 23.9771 0.70664C23.6126 0.577524 23.2205 0.546523 22.8401 0.616747C22.4598 0.68697 22.1046 0.855948 21.8102 1.10674L20.2001 2.48792L15.6954 6.33353L21.2873 8.30665L26.8812 10.2798L25.8039 4.46302Z" fill="#FF9E00"/>
<path d="M25.8039 4.46302L25.4092 2.38137C25.3383 2.00119 25.1686 1.64633 24.9173 1.35239C24.6659 1.05845 24.3417 0.835756 23.9771 0.70664C23.6126 0.577524 23.2205 0.546523 22.8401 0.616747C22.4598 0.68697 22.1046 0.855948 21.8102 1.10674L20.2001 2.48792L15.6954 6.33353L21.2873 8.30665L26.8812 10.2798L25.8039 4.46302Z" fill="#7D50FF"/>
<path d="M25.7439 6.0957H4.35108C2.46366 6.0957 0.933594 7.6253 0.933594 9.51216C0.933594 11.399 2.46366 12.9286 4.35108 12.9286H25.7439C27.6314 12.9286 29.1614 11.399 29.1614 9.51216C29.1614 7.6253 27.6314 6.0957 25.7439 6.0957Z" fill="#B399FF"/>
<path d="M25.7439 6.0957H4.35108C2.46366 6.0957 0.933594 7.6253 0.933594 9.51216C0.933594 11.399 2.46366 12.9286 4.35108 12.9286H25.7439C27.6314 12.9286 29.1614 11.399 29.1614 9.51216C29.1614 7.6253 27.6314 6.0957 25.7439 6.0957Z" fill="#B399FF"/>
<path d="M18.2168 6.0957H11.8633V12.9286H18.2168V6.0957Z" fill="#FF9E00"/>
<path d="M18.2168 6.0957H11.8633V12.9286H18.2168V6.0957Z" fill="#7D50FF"/>
<path d="M14.7756 3.17969H15.3025C15.6851 3.17943 16.064 3.25457 16.4176 3.40081C16.7712 3.54705 17.0925 3.76153 17.3631 4.03199C17.6338 4.30245 17.8485 4.62359 17.9949 4.97706C18.1414 5.33053 18.2168 5.7094 18.2168 6.09201H11.8633C11.8633 5.70956 11.9386 5.33086 12.085 4.97752C12.2313 4.62418 12.4459 4.30312 12.7163 4.03269C12.9867 3.76225 13.3078 3.54773 13.6611 3.40138C14.0145 3.25502 14.3932 3.17969 14.7756 3.17969Z" fill="white"/>
<path d="M14.7756 3.17969H15.3025C15.6851 3.17943 16.064 3.25457 16.4176 3.40081C16.7712 3.54705 17.0925 3.76153 17.3631 4.03199C17.6338 4.30245 17.8485 4.62359 17.9949 4.97706C18.1414 5.33053 18.2168 5.7094 18.2168 6.09201H11.8633C11.8633 5.70956 11.9386 5.33086 12.085 4.97752C12.2313 4.62418 12.4459 4.30312 12.7163 4.03269C12.9867 3.76225 13.3078 3.54773 13.6611 3.40138C14.0145 3.25502 14.3932 3.17969 14.7756 3.17969Z" fill="#7D50FF"/>
</svg>
